# xmcd CD database file
#
# Track frame offsets:
#	150
#	30567
#	57322
#	95007
#	123945
#	159150
#	181262
#	208092
#	229915
#	262667
#	294372
#
# Disc length: 4319 seconds
#
# Revision: 1
# Processed by: cddbd v1.5.1PL0 Copyright (c) Steve Scherf et al.
# Submitted via: CDex 1.51
#
DISCID=8d10dd0b
DTITLE=3 Now 4 - Time Ebbing
DYEAR=2004
DGENRE=Jazz
TTITLE0=Fighting Song
TTITLE1=Bulldog Run
TTITLE2=One for Kisses
TTITLE3=La Sirene
TTITLE4=Lauren Z.
TTITLE5=Lover Man
TTITLE6=Off Minor
TTITLE7=Don Wanna-Be
TTITLE8=Uganda
TTITLE9=By Some Steely Night Ordained
TTITLE10=Time Ebbing
EXTD=YEAR: 2004
EXTT0=
EXTT1=
EXTT2=
EXTT3=
EXTT4=
EXTT5=
EXTT6=
EXTT7=
EXTT8=
EXTT9=
EXTT10=
PLAYORDER=
